<svg xmlns="http://www.w3.org/2000/svg" xmlns:xlink="http://www.w3.org/1999/xlink" width="5.25rem" zoomAndPan="magnify" viewBox="0 0 129 98.249997" height="5.25rem" preserveAspectRatio="xMidYMid meet" version="1.0"><defs><g/></defs><path stroke-linecap="round" transform="matrix(0.0175534, -0.744111, 0.744111, 0.0175534, 35.64049, 45.971403)" fill="none" stroke-linejoin="miter" d="M 0.998329 1.000293 L 31.818386 0.997693 " stroke="#ffffff" stroke-width="2" stroke-opacity="1" stroke-miterlimit="4"/><g fill="#ffffff" fill-opacity="1"><g transform="translate(69.079924, 51.5728)"><g><path d="M 12.59375 -1.078125 C 12.125 -0.765625 11.535156 -0.476562 10.828125 -0.21875 C 10.128906 0.03125 9.363281 0.15625 8.53125 0.15625 C 7.0625 0.15625 5.765625 -0.164062 4.640625 -0.8125 C 3.523438 -1.457031 2.664062 -2.328125 2.0625 -3.421875 C 1.46875 -4.523438 1.171875 -5.738281 1.171875 -7.0625 C 1.171875 -8.476562 1.472656 -9.75 2.078125 -10.875 C 2.691406 -12.007812 3.535156 -12.894531 4.609375 -13.53125 C 5.679688 -14.175781 6.898438 -14.5 8.265625 -14.5 C 9.078125 -14.5 9.832031 -14.390625 10.53125 -14.171875 C 11.226562 -13.960938 11.851562 -13.6875 12.40625 -13.34375 L 11.640625 -11.546875 C 10.546875 -12.285156 9.441406 -12.65625 8.328125 -12.65625 C 7.398438 -12.65625 6.539062 -12.410156 5.75 -11.921875 C 4.96875 -11.429688 4.34375 -10.765625 3.875 -9.921875 C 3.40625 -9.085938 3.171875 -8.164062 3.171875 -7.15625 C 3.171875 -6.125 3.382812 -5.191406 3.8125 -4.359375 C 4.25 -3.523438 4.863281 -2.875 5.65625 -2.40625 C 6.457031 -1.9375 7.378906 -1.703125 8.421875 -1.703125 C 9.703125 -1.703125 10.820312 -2.066406 11.78125 -2.796875 Z M 12.59375 -1.078125 "/></g></g></g><path stroke-linecap="round" transform="matrix(-0.744275, -0.00797435, 0.00797435, -0.744275, 91.30607, 58.167888)" fill="none" stroke-linejoin="miter" d="M 0.999293 1.002124 L 55.902729 1.001695 " stroke="#ffffff" stroke-width="2" stroke-opacity="1" stroke-miterlimit="4"/><g fill="#ffffff" fill-opacity="1"><g transform="translate(46.546947, 33.180315)"><g><path d="M 10.5625 -14.328125 L 10.5625 -12.484375 L 3.984375 -12.484375 L 3.984375 -7.9375 L 9.75 -7.9375 L 9.75 -6.09375 L 3.984375 -6.09375 L 3.984375 0 L 2.0625 0 L 2.0625 -14.328125 Z M 10.5625 -14.328125 "/></g></g></g><path stroke-linecap="round" transform="matrix(0.586434, -0.458372, 0.458372, 0.586434, 35.92831, 22.190838)" fill="none" stroke-linejoin="miter" d="M 0.998345 1.001115 L 46.393933 1.000225 " stroke="#ffffff" stroke-width="2" stroke-opacity="1" stroke-miterlimit="4"/><path stroke-linecap="round" transform="matrix(0.605878, 0.432345, -0.432345, 0.605878, 63.967802, 0.000805498)" fill="none" stroke-linejoin="miter" d="M 0.999251 1.000592 L 25.162016 0.9984 " stroke="#ffffff" stroke-width="2" stroke-opacity="1" stroke-miterlimit="4"/><path stroke-linecap="round" transform="matrix(0.00000000129908, -0.744318, 0.744318, 0.00000000129908, 89.89507, 57.776636)" fill="none" stroke-linejoin="miter" d="M 1.001435 1.001662 L 41.632163 1.001662 " stroke="#ffffff" stroke-width="2" stroke-opacity="1" stroke-miterlimit="4"/><path stroke-linecap="round" transform="matrix(0.582777, -0.463012, 0.463012, 0.582777, 35.93632, 56.613499)" fill="none" stroke-linejoin="miter" d="M 0.997346 0.999797 L 92.129131 0.999421 " stroke="#ffffff" stroke-width="2" stroke-opacity="1" stroke-miterlimit="4"/><path stroke-linecap="round" transform="matrix(0.744318, -0.000000000000004154, 0.000000000000004154, 0.744318, 52.394584, 95.329177)" fill="none" stroke-linejoin="miter" d="M 1.002315 1.000973 L 39.859188 1.000973 " stroke="#ffffff" stroke-width="2" stroke-opacity="1" stroke-miterlimit="4"/><g fill="#ffffff" fill-opacity="1"><g transform="translate(8.011822, 80.008406)"><g><path d="M 8.8125 -11.6875 L 8.8125 -9.46875 L 3.8125 -9.46875 L 3.8125 -6.8125 L 8.140625 -6.8125 L 8.140625 -4.59375 L 3.8125 -4.59375 L 3.8125 0 L 1.515625 0 L 1.515625 -11.6875 Z M 8.8125 -11.6875 "/></g></g></g><g fill="#ffffff" fill-opacity="1"><g transform="translate(20.712545, 80.008406)"><g><path d="M 7.28125 -2.28125 L 3.40625 -2.28125 L 2.453125 0 L 0.1875 0 L 5.46875 -12.140625 L 5.59375 -12.140625 L 10.859375 0 L 8.1875 0 Z M 6.53125 -4.21875 L 5.390625 -7.0625 L 4.21875 -4.21875 Z M 6.53125 -4.21875 "/></g></g></g><g fill="#ffffff" fill-opacity="1"><g transform="translate(34.937272, 80.008406)"><g><path d="M 7.8125 0 L 5.34375 -3.71875 L 3.8125 -3.71875 L 3.8125 0 L 1.515625 0 L 1.515625 -11.6875 L 5.046875 -11.6875 C 6.492188 -11.6875 7.617188 -11.332031 8.421875 -10.625 C 9.222656 -9.925781 9.625 -8.96875 9.625 -7.75 C 9.625 -7.03125 9.472656 -6.351562 9.171875 -5.71875 C 8.867188 -5.09375 8.40625 -4.597656 7.78125 -4.234375 L 10.5 0 Z M 3.8125 -5.9375 L 5.4375 -5.9375 C 6.0625 -5.9375 6.515625 -6.117188 6.796875 -6.484375 C 7.085938 -6.847656 7.234375 -7.242188 7.234375 -7.671875 C 7.234375 -8.085938 7.113281 -8.488281 6.875 -8.875 C 6.632812 -9.269531 6.164062 -9.46875 5.46875 -9.46875 L 3.8125 -9.46875 Z M 3.8125 -5.9375 "/></g></g></g><g fill="#ffffff" fill-opacity="1"><g transform="translate(49.003245, 80.008406)"><g><path d="M 13.546875 -12.15625 L 13.546875 0 L 11.234375 0 L 11.234375 -5.578125 L 7.421875 -0.15625 L 7.390625 -0.15625 L 3.734375 -5.21875 L 3.734375 0 L 1.515625 0 L 1.515625 -12.15625 L 1.53125 -12.15625 L 7.453125 -3.765625 L 13.515625 -12.15625 Z M 13.546875 -12.15625 "/></g></g></g><g fill="#ffffff" fill-opacity="1"><g transform="translate(67.228465, 80.008406)"><g><path d="M 10.265625 -0.96875 C 9.972656 -0.726562 9.503906 -0.484375 8.859375 -0.234375 C 8.210938 0.00390625 7.507812 0.125 6.75 0.125 C 5.53125 0.125 4.46875 -0.132812 3.5625 -0.65625 C 2.664062 -1.1875 1.976562 -1.898438 1.5 -2.796875 C 1.03125 -3.691406 0.796875 -4.675781 0.796875 -5.75 C 0.796875 -6.925781 1.03125 -7.972656 1.5 -8.890625 C 1.976562 -9.804688 2.644531 -10.519531 3.5 -11.03125 C 4.363281 -11.550781 5.359375 -11.8125 6.484375 -11.8125 C 7.191406 -11.8125 7.84375 -11.710938 8.4375 -11.515625 C 9.039062 -11.328125 9.570312 -11.09375 10.03125 -10.8125 L 9.125 -8.640625 C 8.289062 -9.273438 7.4375 -9.59375 6.5625 -9.59375 C 5.96875 -9.59375 5.410156 -9.425781 4.890625 -9.09375 C 4.367188 -8.769531 3.953125 -8.320312 3.640625 -7.75 C 3.335938 -7.1875 3.1875 -6.5625 3.1875 -5.875 C 3.1875 -5.125 3.328125 -4.460938 3.609375 -3.890625 C 3.898438 -3.328125 4.3125 -2.882812 4.84375 -2.5625 C 5.375 -2.25 5.992188 -2.09375 6.703125 -2.09375 C 7.273438 -2.09375 7.785156 -2.1875 8.234375 -2.375 C 8.691406 -2.5625 9.050781 -2.78125 9.3125 -3.03125 Z M 10.265625 -0.96875 "/></g></g></g><g fill="#ffffff" fill-opacity="1"><g transform="translate(81.469069, 80.008406)"><g><path d="M 7.28125 -2.28125 L 3.40625 -2.28125 L 2.453125 0 L 0.1875 0 L 5.46875 -12.140625 L 5.59375 -12.140625 L 10.859375 0 L 8.1875 0 Z M 6.53125 -4.21875 L 5.390625 -7.0625 L 4.21875 -4.21875 Z M 6.53125 -4.21875 "/></g></g></g><g fill="#ffffff" fill-opacity="1"><g transform="translate(95.693795, 80.008406)"><g><path d="M 7.8125 0 L 5.34375 -3.71875 L 3.8125 -3.71875 L 3.8125 0 L 1.515625 0 L 1.515625 -11.6875 L 5.046875 -11.6875 C 6.492188 -11.6875 7.617188 -11.332031 8.421875 -10.625 C 9.222656 -9.925781 9.625 -8.96875 9.625 -7.75 C 9.625 -7.03125 9.472656 -6.351562 9.171875 -5.71875 C 8.867188 -5.09375 8.40625 -4.597656 7.78125 -4.234375 L 10.5 0 Z M 3.8125 -5.9375 L 5.4375 -5.9375 C 6.0625 -5.9375 6.515625 -6.117188 6.796875 -6.484375 C 7.085938 -6.847656 7.234375 -7.242188 7.234375 -7.671875 C 7.234375 -8.085938 7.113281 -8.488281 6.875 -8.875 C 6.632812 -9.269531 6.164062 -9.46875 5.46875 -9.46875 L 3.8125 -9.46875 Z M 3.8125 -5.9375 "/></g></g></g><g fill="#ffffff" fill-opacity="1"><g transform="translate(109.759768, 80.008406)"><g><path d="M 9.484375 -11.6875 L 9.484375 -9.46875 L 3.8125 -9.46875 L 3.8125 -6.96875 L 8.828125 -6.96875 L 8.828125 -4.75 L 3.8125 -4.75 L 3.8125 -2.21875 L 9.703125 -2.21875 L 9.703125 0 L 1.515625 0 L 1.515625 -11.6875 Z M 9.484375 -11.6875 "/></g></g></g></svg>